<?xml version="1.0" encoding="utf-8"?>
<!-- Generator: Adobe Illustrator 16.0.0, SVG Export Plug-In . SVG Version: 6.00 Build 0)  -->
<!DOCTYPE svg PUBLIC "-//W3C//DTD SVG 1.1//EN" "http://www.w3.org/Graphics/SVG/1.1/DTD/svg11.dtd">
<svg version="1.1" id="Layer_1" xmlns="http://www.w3.org/2000/svg" xmlns:xlink="http://www.w3.org/1999/xlink" x="0px" y="0px"
	 width="383.431px" height="167.681px" viewBox="0 0 383.431 167.681" enable-background="new 0 0 383.431 167.681"
	 xml:space="preserve">
<g>
	<g>
		<path fill="#CCCDD6" d="M126.734,142.265c0,5.588-4.31,9.73-9.508,9.73h-8.312v-3.502h1.668v-12.455h-1.668v-3.531h8.312
			C122.814,132.507,126.734,136.677,126.734,142.265z M115.141,148.493h1.446c4.142,0,5.588-3.114,5.588-6.229
			c0-3.141-1.835-6.227-5.588-6.227h-1.446V148.493z"/>
		<path fill="#CCCDD6" d="M151.277,143.989l-1.029,8.006h-16.375v-3.475h1.751v-12.539h-1.751v-3.475h15.318l1.751,6.617h-3.503
			c-0.333-1.391-0.695-3.143-2.78-3.143h-4.532v4.199h2.446v-1.418h3.476v6.283h-3.476v-1.391h-2.446v4.865h5.588
			c1.029,0,1.724-2.447,2.085-4.531H151.277z"/>
		<path fill="#CCCDD6" d="M174.93,146.464c0,5.56-5.56,5.56-7.312,5.56s-3.809-0.694-4.532-2.085v2.085h-3.475v-8.007h3.475v1.752
			c0,1.39,1.751,2.779,3.836,2.779c1.751,0,3.809-0.723,3.809-1.751c0-1.751-1.362-2.085-4.504-3.114
			c-2.419-0.723-6.255-1.751-6.255-5.588c0-3.113,3.114-5.588,6.95-5.588c2.447,0,3.476,1.057,3.809,2.113v-2.113h3.503v6.617
			h-3.503v-0.334c0-1.029-1.029-2.78-3.809-2.78c-1.056,0-2.446,0.694-2.446,1.751c0,1.029,1.057,1.363,3.475,2.086
			C170.732,140.542,174.93,141.569,174.93,146.464z"/>
		<path fill="#CCCDD6" d="M182.236,132.591h7.979v3.475h-1.752v12.511h1.752v3.447h-7.979v-3.447h1.752v-12.511h-1.752V132.591z"/>
		<path fill="#CCCDD6" d="M208.285,142.293h8.256v3.614h-1.807v5.727h-1.445c-0.75,0.14-2.002,0.723-4.643,0.723h-1.807
			c-6.451,0-10.064-3.613-10.064-10.063c0-6.812,5.059-10.063,10.064-10.063c1.807,0,3.252,0.361,4.281,0.723v-0.723h3.613v8.256
			h-3.613v-1.445c0-0.361-0.668-3.197-4.281-3.197c-4.283,0-5.422,4.643-5.422,6.45c0,3.253,1.807,6.45,5.422,6.45
			c1.807,0,3.252-0.668,3.252-1.808v-1.028h-1.807V142.293z"/>
		<path fill="#CCCDD6" d="M234.773,132.534h7.311v3.476h-1.75v16.014h-2.781l-9.062-12.177v8.701c0.361,0,2.113,0,2.113,0v3.476
			h-7.312v-3.476h2.086V136.01h-2.086v-3.476h6.227l7.34,10.426v-6.95h-2.084V132.534z"/>
	</g>
	<g>
		<g>
			<path fill="#CCCDD6" d="M145.133,86.265c-3.439,1.855-6.388,26.189-13.275,26.725c-3.486,0.27-6.409-8.855-6.825-12.258
				c-0.671-5.497-2.361-12.029-1.093-16.584c3.417-12.264,14.137-28.837,17.929-43.542c2.082-8.075,3.472-16.385,2.992-24.534
				c-0.242-4.083-2.907-14.084-12.665-12.258c-9.042,1.692-11.812,11.705-13.589,16.832c-4.629,13.344-5.494,27.163-5.912,40.634
				c-0.295,9.501-0.483,19.176,0.225,28.75c-3.377,2.633-4.266,24.959-11.514,26.029c-3.589,0.529-6.854-8.507-7.519-11.205
				c-1.253-5.083-3.12-11.264-2.204-15.559c2.572-12.061,12.78-28.512,15.313-42.962c1.388-7.914,1.788-15.951,1.029-23.932
				c-0.27-2.822-3.134-13.791-12.289-10.419c-8.628,3.179-10.289,12.165-11.936,17.655c-3.863,12.882-4.542,26.132-4.343,39.064
				c0.137,8.886,0.557,17.949,2.032,26.882c-2.94,2.656-1.493,23.367-10.064,24.609c-4.267,0.617-10.92-6.019-10.451-8.061
				c1.59-6.921,12.137-23.551,10.13-34.341c-0.615-3.31-4.188-8.973-10.53-7.07c-18.986,5.697-14.157,31.804-8.758,43.045
				c-0.314,0.115-0.472,0.172-0.785,0.287c-3.234,1.195-8.109,0.695-9.158-0.334c-4.84-4.744-2.893-18.592-6.245-27.646
				c-2.228-6.017-5.78-8.309-9.462-5.56c-7.164,5.349-3.91,15.56-0.703,21.515c2.223,4.126,7.557,8.631,9.715,11.74
				c2.678,3.859,5.884,15.455,1.471,18.697c-0.676,0.497-3.406-1.145-5.719-4.24c-7.717-10.337-10.527-21.775-13.21-32.812
				c-2.931,2.361-4.315,3.582-6.91,6.101c1.626,6.581,3.994,13.112,6.597,19.458c2.092,5.1,7.913,14.656,3.765,17.931
				c-0.421,0.332-2.032-0.468-3.423-2.038c-7.942-8.961-10.064-19.66-12.451-29.492c-2.305,2.693-3.365,4.08-5.297,6.935
				c1.639,8.452,3.353,17.378,9.908,25.099c2.4,2.828,10.205,7.936,15.299,5.931c4.967-1.954-0.293-12.985-0.203-13.003
				c0,0,10.23,9.646,15.988,7.776c7.789-2.53,0.624-22.103,1.571-22.448c0,0,6.306,1.068,9.567-0.09
				c0.574-0.204,0.863-0.307,1.444-0.508c3.044,4.577,10.737,15.589,19.978,13.959c7.792-1.373,10.711-10.986,11.72-19.947
				c2.165,6.512,6.663,16.771,14.387,15.8c9.209-1.157,13.014-13.086,14.962-23.163c1.014,6.129,3.94,21.494,14.262,20.619
				c15.121-1.281,17.95-29.074,19.976-36.246c0,0,0,0-0.013-0.15C148.787,87.19,145.35,86.147,145.133,86.265z M127.735,36.012
				c1.113-6.326,0.821-20.127,7.63-22.625c0.484-0.178,1.814,0.956,1.989,3.022c1.631,19.385-13.163,58.467-13.325,58.456
				C124.029,74.865,125.464,48.926,127.735,36.012z M33.932,107.525c0,0-3.969-5.216-5.097-7.854
				c-1.712-4.009-5.237-10.373-2.067-13.529c0.553-0.55,1.428,0.104,2.023,1.642C31.299,94.257,34.089,107.499,33.932,107.525z
				 M58.863,107.627c0,0-7.541-23.927,2.73-28.868c0.676-0.326,1.717,0.639,2.165,2.363
				C65.952,89.563,59.424,107.649,58.863,107.627z M93.366,41.441c0.86-6.16-0.204-17.531,5.831-20.618
				c0.444-0.228,1.734,0.724,2.026,2.691c2.79,18.849-9.818,57.015-9.979,57.007C91.244,80.521,91.55,54.443,93.366,41.441z"/>
		</g>
		<g>
			<path fill="#CCCDD6" d="M295.811,57.014c7.385,1.992,11.457-4.17,12.068-7.195c0.738-3.647-0.514-7.774-5.195-9.26
				c-7.711-2.448-11.748,4.538-12.252,7.549C289.817,51.781,291.372,55.817,295.811,57.014z"/>
		</g>
		<g>
			<path fill="#CCCDD6" d="M369.995,65.94c-6.051-7.522-20.881-14.878-33.691-5.648c20.561-2.73,27.242,3.408,32.354,10.374
				c8.287,11.296,11.639,26.94,5.951,38.495c-6.148,12.494-42.121,25.076-42.729,24.795c0,0,19.535-23.524,29.51-35.231
				c-2.574-2.403-3.949-3.565-6.855-5.815c-5.203,6.89-10.182,13.827-15.805,20.619c-3.357,4.052-10.941,14.339-15.229,14.22
				c-0.461-0.013-1.488-1.175,0.186-4.349c2.664-5.047,6.281-9.951,9.824-14.83c4.867-6.697,9.818-13.406,14.926-20.064
				c-3.271-2.203-4.99-3.266-8.576-5.305c-5.145,7.088-9.939,14.267-14.625,21.434c-0.198,0.305-0.396,0.61-0.593,0.915
				c-1.801,0.712-12.971,16.397-18.409,16.511c-0.568,0.012-1.348-1.189-0.598-2.996c2.912-6.999,10.551-13.473,13.322-20.592
				c2.512-6.455-3.658-14.875-3.258-19.398c0.406-4.599,7.115-12.672,9.586-19.202c-3.484-2.828-5.297-4.228-9.043-6.987
				c-2.979,4.87-5.979,9.824-7.098,14.823c-0.854,3.813-0.021,8.418-0.627,11.625c-0.938,4.975-6.572,11.664-10.379,17.419
				c0,0,0,0,0,0.001c-1.948,0.438-11.225,19.813-18.221,20.22c-0.68,0.039-2.256-1.068-1.367-5.035
				c3.488-15.594,11.82-30.898,19.189-46.047c-4.656-1.373-7.041-2.018-11.908-3.226c-4.519,9.617-9.313,19.341-12.858,29.105
				c-3.256,2.725-10.728,21.101-17.309,22.229c-0.331,0.058-0.902-1.116-0.577-3.278c0.152-1.009,0.359-2.176,0.831-3.717
				c4.782-15.65,10.052-31.566,16.589-47.195c-4.234-0.861-6.215-1.259-10.357-2c-1.121,3.119-1.682,4.683-2.79,7.821
				c0.131-3.951-1.148-10.237-8.308-11.251c-13.74-1.948-22.451,16.216-26.993,31.331c-0.043-0.007-0.073-0.008-0.09-0.002
				c-2.754,1.035-7.85,23.977-16.759,25.128c-0.912,0.118-2.882-0.845-2.682-5.223c0.68-14.87,10.805-29.331,12.139-44.077
				c0.35-3.864-0.873-10.734-8.812-11.185c-9.656-0.548-19.203,11.954-19.292,11.939c0,0,0.699-6.17,1.829-8.351
				c6.058-11.699,25.183-28.937,26.562-43.76c0.405-4.362-2.434-10.065-11.876-10.176c-8.973-0.106-12.985,5.457-15.264,9.142
				c-15.345,24.821-22.292,99.775-22.105,107.875c0.029,1.343,0.12,2.716,0.319,4.071c4.551-0.097,6.84-0.13,11.42-0.167
				c1.605-15.277,3.143-30.819,8.905-45.833c1.528-3.983,4.489-13.487,11.659-14.051c1.437-0.112,2.549,1.439,2.479,3.097
				c-0.633,14.718-11.134,29.749-10.874,44.017c0.075,4.179,1.681,13.361,9.456,13.621c7.577,0.252,14.203-7.479,19.019-15.764
				c-0.293,5.835-0.249,16.602,8.21,17.389c9.41,0.875,17.747-15.773,17.797-15.77c0,0-0.163,1.177-0.21,1.61
				c-0.385,3.549-1.506,14.399,4.697,14.827c5.681,0.394,12.422-7.074,17.704-14.777c-0.792,5.137-1.949,16.184,5.804,17.146
				c10.609,1.318,22.719-21.088,26.852-26.974c0.001-0.004,0.002-0.006,0.003-0.009c2.902-4.053,5.853-8.093,8.86-12.123
				c0.508,3.104,0.689,6.396-0.631,10.104c-2.709,7.604-10.115,14.689-12.908,22.355c-1.098,3.017-2.016,10.148,3.195,10.875
				c5.176,0.723,11.455-4.491,16.86-10.213c-1.971,4.422-5.665,11.961,0.212,14.438c1.711,0.719,8.57-2.885,8.615-2.87
				c0,0-3.502,5.624-5.586,7.231c-6.395,4.936-18.814,11.713-22.609,19.266c-3.078,6.125-1.768,9.414,0.668,9.15
				c8.764-0.947,16.113-12.296,20.488-17.376c2.822-3.395,5.658-6.785,8.502-10.175c17.918-7.341,40.488-11.485,51.25-24.621
				C389.458,101.349,381.03,79.665,369.995,65.94z M201.038,16.083c0.934-2.224,2.123-5.756,4.606-6.191
				c0.528-0.093,1.585,0.833,1.513,2.185c-0.526,9.825-13.42,29.132-13.485,29.123C193.671,41.2,197.58,24.322,201.038,16.083z
				 M253.774,74.868c-1.188,8.372-4.454,16.852-8.897,24.9c-2.071,3.752-5.432,10.686-10.33,11.271
				c-1.37,0.164-2.636-3.327-2.155-7.93c0.859-8.217,3.421-16.518,7.079-24.514c1.849-4.04,5.709-13.21,10.986-13.557
				C252.596,64.898,254.538,69.494,253.774,74.868z M306.502,156.55c-2.457,3.271-4.328,5.396-5.559,5.317
				c-0.723-0.047-0.949-0.983,0.23-3.098c2.58-4.624,7.115-8.88,13.035-12.452C311.614,149.723,309.045,153.132,306.502,156.55z"/>
		</g>
	</g>
</g>
</svg>
