<?xml version="1.0" encoding="utf-8"?>
<!-- Generator: Adobe Illustrator 16.0.0, SVG Export Plug-In . SVG Version: 6.00 Build 0)  -->
<!DOCTYPE svg PUBLIC "-//W3C//DTD SVG 1.1//EN" "http://www.w3.org/Graphics/SVG/1.1/DTD/svg11.dtd">
<svg version="1.1" id="Layer_1" xmlns="http://www.w3.org/2000/svg" xmlns:xlink="http://www.w3.org/1999/xlink" x="0px" y="0px"
	 width="75.852px" height="75.852px" viewBox="0 0 75.852 75.852" enable-background="new 0 0 75.852 75.852" xml:space="preserve">
<g>
	<path fill="#00A651" d="M75.852,70.526l-2.347-2.347l0.936-0.936L45.059,37.861l22.484-22.484c0,0,7.872-13.169,7.96-13.438
		c0.167-0.503,0.108-1.002-0.207-1.318c-0.318-0.316-0.816-0.375-1.318-0.208c-0.27,0.089-13.438,7.96-13.438,7.96L38.056,30.858
		L14.417,7.22l-0.176,0.176c-0.177,0.038-0.508,0.243-0.944,0.576l-2.16-2.16l-0.13,0.129c-0.145,0.031-0.437,0.222-0.814,0.518
		L5.46,1.725L5.369,1.816C5.125,1.868,4.313,2.534,3.422,3.424C2.531,4.315,1.865,5.127,1.813,5.371L1.725,5.46l4.733,4.733
		c-0.297,0.378-0.489,0.671-0.52,0.817l-0.127,0.127l2.16,2.16c-0.334,0.438-0.542,0.772-0.58,0.949L7.22,14.417l23.639,23.639
		L0.516,68.398l0.3,0.301c-0.15,0.252-1.605,2.852,0.874,5.33c2.448,2.448,5.259,1.196,5.525,1.069l0.303,0.303l30.343-30.343
		l29.383,29.383l0.936-0.936l2.347,2.346L75.852,70.526z"/>
	<path fill="#00A651" d="M0.513,0L0.501,0.013c-0.031,0.01-0.14,0.104-0.262,0.227C0.116,0.362,0.022,0.47,0.013,0.501L0,0.513
		L3.166,3.68l0.256-0.256L3.68,3.167L0.513,0z"/>
</g>
</svg>
