<?xml version="1.0" encoding="utf-8"?>
<!-- Generator: Adobe Illustrator 16.0.0, SVG Export Plug-In . SVG Version: 6.00 Build 0)  -->
<!DOCTYPE svg PUBLIC "-//W3C//DTD SVG 1.1//EN" "http://www.w3.org/Graphics/SVG/1.1/DTD/svg11.dtd">
<svg version="1.1" id="Layer_1" xmlns="http://www.w3.org/2000/svg" xmlns:xlink="http://www.w3.org/1999/xlink" x="0px" y="0px"
	 width="94.698px" height="50.095px" viewBox="0 0 94.698 50.095" enable-background="new 0 0 94.698 50.095" xml:space="preserve">
<g>
	<path fill="#00A651" d="M39.567,30.912c-0.414,2.944-1.288,5.601-2.622,7.97s-3.001,4.381-5.002,6.037s-4.256,2.933-6.762,3.83
		c-2.508,0.896-5.165,1.346-7.97,1.346c-2.807,0-5.348-0.449-7.625-1.346c-2.276-0.897-4.174-2.174-5.692-3.83
		c-1.518-1.656-2.611-3.668-3.277-6.037c-0.667-2.369-0.793-5.025-0.38-7.97L4.585,0h8.693L9.001,30.636
		c-0.185,1.197-0.185,2.449,0,3.761c0.183,1.312,0.621,2.519,1.311,3.622c0.69,1.104,1.69,2.014,3.002,2.727
		c1.311,0.713,3.001,1.068,5.071,1.068s3.864-0.355,5.382-1.068c1.519-0.713,2.771-1.622,3.761-2.727
		c0.988-1.104,1.76-2.311,2.312-3.622s0.92-2.563,1.104-3.761L35.221,0h8.694L39.567,30.912z"/>
	<path fill="#00A651" d="M63.303,23.322L50.262,0h10.972l8.97,18.078L84.142,0h10.557L75.447,23.322l14.145,25.53h-11.04
		L68.547,28.221L52.815,48.853H42.327L63.303,23.322z"/>
</g>
</svg>
